<?xml version="1.0" encoding="utf-8"?>
<!-- Generator: Adobe Illustrator 24.0.0, SVG Export Plug-In . SVG Version: 6.00 Build 0)  -->
<svg version="1.1" id="Layer_1" xmlns="http://www.w3.org/2000/svg" xmlns:xlink="http://www.w3.org/1999/xlink" x="0px" y="0px"
	 viewBox="0 0 150 150" style="enable-background:new 0 0 150 150;" xml:space="preserve">
<style type="text/css">
	.st0{fill:#C4BDE8;}
	.st1{fill:none;stroke:#C4BDE8;stroke-miterlimit:10;}
	.st2{fill-rule:evenodd;clip-rule:evenodd;fill:none;stroke:#C4BDE8;stroke-miterlimit:10;}
</style>
<g>
	<path class="st0" d="M75,31.1c1.7,0,3.4,0.7,4.6,1.9L117,70.4c1.2,1.2,1.9,2.9,1.9,4.6s-0.7,3.4-1.9,4.6L79.6,117
		c-1.2,1.2-2.9,1.9-4.6,1.9s-3.4-0.7-4.6-1.9L33,79.6c-2.6-2.6-2.6-6.7,0-9.3L70.4,33C71.6,31.8,73.3,31.1,75,31.1 M75,30.1
		c-1.9,0-3.9,0.7-5.3,2.2L32.3,69.7c-2.9,2.9-2.9,7.7,0,10.7l37.3,37.3c1.5,1.5,3.4,2.2,5.3,2.2s3.9-0.7,5.3-2.2l37.3-37.3
		c2.9-2.9,2.9-7.7,0-10.7L80.3,32.3C78.9,30.9,76.9,30.1,75,30.1L75,30.1z"/>
</g>
<g>
	<path class="st0" d="M75,27.1c1.7,0,3.4,0.7,4.6,1.9L121,70.4c2.6,2.6,2.6,6.7,0,9.3L79.6,121c-1.2,1.2-2.9,1.9-4.6,1.9
		c-1.7,0-3.4-0.7-4.6-1.9L29,79.6c-2.6-2.6-2.6-6.7,0-9.3L70.4,29C71.6,27.8,73.3,27.1,75,27.1 M75,26.1c-1.9,0-3.9,0.7-5.3,2.2
		L28.3,69.7c-2.9,2.9-2.9,7.7,0,10.7l41.3,41.3c1.5,1.5,3.4,2.2,5.3,2.2s3.9-0.7,5.3-2.2l41.3-41.3c2.9-2.9,2.9-7.7,0-10.7
		L80.3,28.3C78.9,26.9,76.9,26.1,75,26.1L75,26.1z"/>
</g>
</svg>
