<?xml version="1.0" encoding="utf-8"?>
<!-- Generator: Adobe Illustrator 24.0.0, SVG Export Plug-In . SVG Version: 6.00 Build 0)  -->
<svg version="1.1" id="Layer_1" xmlns="http://www.w3.org/2000/svg" xmlns:xlink="http://www.w3.org/1999/xlink" x="0px" y="0px"
	 viewBox="0 0 150 150" style="enable-background:new 0 0 150 150;" xml:space="preserve">
<style type="text/css">
	.st0{fill:#C4BDE8;}
	.st1{fill:none;stroke:#C4BDE8;stroke-miterlimit:10;}
	.st2{fill-rule:evenodd;clip-rule:evenodd;fill:none;stroke:#C4BDE8;stroke-miterlimit:10;}
</style>
<g>
	<g>
		<path class="st1" d="M20.8,52.6c3.5-0.6,4.5,5.3,8,4.7c3.5-0.6,2.4-6.5,5.9-7.1c3.5-0.6,4.5,5.3,8,4.7c3.5-0.6,2.4-6.5,5.9-7.1
			c3.5-0.6,4.5,5.3,8,4.7c3.5-0.6,2.4-6.5,5.9-7.1c3.5-0.6,4.5,5.3,8,4.7c3.5-0.6,2.4-6.5,5.9-7.1c3.5-0.6,4.5,5.3,8,4.7
			c3.5-0.6,2.4-6.5,5.9-7.1c3.5-0.6,4.5,5.3,8,4.7c3.5-0.6,2.4-6.5,5.9-7.1c3.5-0.6,4.5,5.3,8,4.7c3.5-0.6,2.4-6.5,5.9-7.1"/>
	</g>
	<g>
		<path class="st1" d="M24.1,71.3c3.5-0.6,4.5,5.3,8,4.7c3.5-0.6,2.4-6.5,5.9-7.1c3.5-0.6,4.5,5.3,8,4.7c3.5-0.6,2.4-6.5,5.9-7.1
			c3.5-0.6,4.5,5.3,8,4.7c3.5-0.6,2.4-6.5,5.9-7.1c3.5-0.6,4.5,5.3,8,4.7s2.4-6.5,5.9-7.1c3.5-0.6,4.5,5.3,8,4.7
			c3.5-0.6,2.4-6.5,5.9-7.1c3.5-0.6,4.5,5.3,8,4.7c3.5-0.6,2.4-6.5,5.9-7.1c3.5-0.6,4.5,5.3,8,4.7c3.5-0.6,2.4-6.5,5.9-7.1"/>
	</g>
	<g>
		<path class="st1" d="M27.4,90c3.5-0.6,4.5,5.3,8,4.7c3.5-0.6,2.4-6.5,5.9-7.1c3.5-0.6,4.5,5.3,8,4.7c3.5-0.6,2.4-6.5,5.9-7.1
			c3.5-0.6,4.5,5.3,8,4.7c3.5-0.6,2.4-6.5,5.9-7.1c3.5-0.6,4.5,5.3,8,4.7s2.4-6.5,5.9-7.1c3.5-0.6,4.5,5.3,8,4.7
			c3.5-0.6,2.4-6.5,5.9-7.1c3.5-0.6,4.5,5.3,8,4.7c3.5-0.6,2.4-6.5,5.9-7.1c3.5-0.6,4.5,5.3,8,4.7s2.4-6.5,5.9-7.1"/>
	</g>
	<g>
		<path class="st1" d="M30.7,108.7c3.5-0.6,4.5,5.3,8,4.7c3.5-0.6,2.4-6.5,5.9-7.1c3.5-0.6,4.5,5.3,8,4.7c3.5-0.6,2.4-6.5,5.9-7.1
			c3.5-0.6,4.5,5.3,8,4.7c3.5-0.6,2.4-6.5,5.9-7.1c3.5-0.6,4.5,5.3,8,4.7c3.5-0.6,2.4-6.5,5.9-7.1c3.5-0.6,4.5,5.3,8,4.7
			c3.5-0.6,2.4-6.5,5.9-7.1c3.5-0.6,4.5,5.3,8,4.7c3.5-0.6,2.4-6.5,5.9-7.1c3.5-0.6,4.5,5.3,8,4.7c3.5-0.6,2.4-6.5,5.9-7.1"/>
	</g>
</g>
</svg>
