<svg xmlns="http://www.w3.org/2000/svg" width="13px" height="13px" viewBox="0 0 13 13">
<defs><style>.fill{fill:#fff;}.no-fill{fill:none;}</style></defs>
<path class="fill" d="M7.31,6.5l5.09-5.09c0.22-0.22,0.22-0.59,0-0.81s-0.59-0.22-0.81,0L6.5,5.69L1.41,0.59
		c-0.22-0.22-0.59-0.22-0.81,0s-0.22,0.59,0,0.81L5.69,6.5l-5.09,5.09c-0.22,0.22-0.22,0.59,0,0.81c0.11,0.11,0.26,0.17,0.41,0.17
		s0.29-0.06,0.41-0.17L6.5,7.31l5.09,5.09c0.11,0.11,0.26,0.17,0.41,0.17s0.29-0.06,0.41-0.17c0.22-0.22,0.22-0.59,0-0.81L7.31,6.5z
		"/>
<rect class="no-fill" id="Bounding-Box" width="13" height="13"/>
</svg>
