<svg xmlns="http://www.w3.org/2000/svg" width="20px" height="16px" viewBox="0 0 20 16">
<defs><style>.fill{fill:#fff;}.no-fill{fill:none;}</style></defs>
<path class="fill" d="M17.4,1C18.3,1,19,1.7,19,2.5v8c0,0.8-0.7,1.5-1.6,1.5H16l-4,2.5V12H2.6C1.7,12,1,11.3,1,10.4
	V2.5C1,1.7,1.7,1,2.6,1H17.4 M9.5,8h7C16.8,8,17,7.8,17,7.5S16.8,7,16.5,7h-7C9.2,7,9,7.2,9,7.5S9.2,8,9.5,8 M3.5,8h4
	C7.8,8,8,7.8,8,7.5S7.8,7,7.5,7h-4C3.2,7,3,7.2,3,7.5S3.2,8,3.5,8 M12.5,10h4c0.3,0,0.5-0.2,0.5-0.5S16.8,9,16.5,9h-4
	C12.2,9,12,9.2,12,9.5S12.2,10,12.5,10 M3.5,10h7c0.3,0,0.5-0.2,0.5-0.5S10.8,9,10.5,9h-7C3.2,9,3,9.2,3,9.5S3.2,10,3.5,10 M17.4,0
	H2.6C1.2,0,0,1.1,0,2.5v7.9C0,11.9,1.1,13,2.6,13H11v1.5c0,0.4,0.2,0.7,0.5,0.9c0.2,0.1,0.3,0.1,0.5,0.1s0.4-0.1,0.6-0.2l3.7-2.3
	h1.1c1.4,0,2.6-1.1,2.6-2.5v-8C20,1.1,18.8,0,17.4,0L17.4,0z"/>
<rect class="no-fill" id="Bounding-Box" width="20" height="16"/>
</svg>
