<svg xmlns="http://www.w3.org/2000/svg" width="16px" height="17px" viewBox="0 0 16 17">
<defs><style>.fill{fill:#fff;}.no-fill{fill:none;}</style></defs>
<path class="fill" d="M14.78,2.22C14.93,2.37,15,2.56,15,2.78v12.44c0,0.22-0.07,0.4-0.22,0.55
		C14.63,15.93,14.44,16,14.22,16h-3.56v-5.42h1.82l0.27-2.11h-2.09V7.12c0-0.34,0.06-0.59,0.19-0.74c0.16-0.19,0.45-0.29,0.85-0.29
		h1.12V4.2c-0.14-0.02-0.34-0.03-0.6-0.05c-0.35-0.02-0.69-0.04-1.03-0.04c-0.54,0-1.02,0.11-1.43,0.32
		c-0.4,0.22-0.72,0.54-0.93,0.95C8.59,5.81,8.47,6.32,8.47,6.91v1.56H6.65v2.11h1.82V16h-6.7c-0.22,0-0.4-0.07-0.55-0.22
		C1.07,15.63,0.99,15.43,1,15.22V2.78c0-0.21,0.08-0.41,0.23-0.55S1.57,2,1.78,2h12.44C14.44,2,14.63,2.07,14.78,2.22z"/>
<rect class="no-fill" id="Bounding-Box" width="16" height="17"/>
</svg>