<svg xmlns="http://www.w3.org/2000/svg" width="17px" height="17px" viewBox="0 0 17 17">
<defs><style>.fill{fill:#fff;}.no-fill{fill:none;}</style></defs>
<path class="fill" d="M7.37,10.15c-0.15,0-0.31-0.06-0.42-0.18L6.83,9.87c-1.32-1.35-1.28-3.41,0.1-4.79l3.68-3.68
		c1.33-1.33,3.66-1.33,4.99,0c1.38,1.38,1.38,3.61,0,4.99l-1.75,1.75c-0.23,0.23-0.61,0.23-0.85,0c-0.23-0.23-0.23-0.61,0-0.85
		l1.75-1.75c0.91-0.91,0.91-2.38,0-3.29c-0.88-0.88-2.41-0.88-3.29,0L7.78,5.93c-0.9,0.9-0.94,2.23-0.09,3.09l0.1,0.1
		c0.23,0.23,0.23,0.61,0,0.85C7.67,10.09,7.52,10.15,7.37,10.15z M6.39,15.6l3.68-3.68c1.37-1.37,1.4-3.48,0.07-4.81l-0.09-0.09
		c-0.23-0.23-0.61-0.23-0.85,0c-0.23,0.23-0.23,0.61,0,0.85l0.09,0.09c0.87,0.87,0.84,2.21-0.07,3.12l-3.68,3.68
		c-0.88,0.88-2.41,0.88-3.29,0c-0.91-0.91-0.91-2.38,0-3.29l1.79-1.79c0.23-0.23,0.23-0.61,0-0.85c-0.23-0.23-0.61-0.23-0.85,0
		l-1.79,1.79c-1.38,1.37-1.38,3.61,0,4.99c0.67,0.67,1.55,1.03,2.49,1.03S5.73,16.26,6.39,15.6z"/>
<rect class="no-fill" id="Bounding-Box" width="17" height="17"/>
</svg>