<svg xmlns="http://www.w3.org/2000/svg" width="24px" height="17px" viewBox="0 0 24 17">
<defs><style>.fill{fill:#fff;}.no-fill{fill:none;}</style></defs>
<path class="fill" d="M14.03,1.28l-2.85,14.79c-0.09,0.26-0.32,0.43-0.58,0.43c-0.06,0-0.12-0.01-0.18-0.03
		c-0.15-0.05-0.28-0.15-0.35-0.3c-0.07-0.14-0.09-0.3-0.04-0.45l2.85-14.8c0.05-0.16,0.16-0.29,0.3-0.36s0.3-0.09,0.46-0.04
		C13.96,0.63,14.13,0.97,14.03,1.28z M23.48,8.62c0.01-0.04,0.02-0.08,0.02-0.12s-0.01-0.08-0.02-0.12s-0.01-0.07-0.02-0.11
		c-0.02-0.04-0.04-0.08-0.07-0.12c-0.02-0.02-0.02-0.05-0.04-0.07l-0.01-0.01c-0.01-0.01-0.01-0.02-0.02-0.02l-5.79-5.39
		c-0.24-0.23-0.62-0.21-0.85,0.03s-0.21,0.62,0.03,0.85l5.32,4.95l-5.32,4.95c-0.24,0.23-0.26,0.61-0.03,0.85
		c0.12,0.13,0.28,0.19,0.44,0.19c0.15,0,0.29-0.05,0.41-0.16l5.79-5.39c0.01-0.01,0.01-0.02,0.02-0.02l0.01-0.01
		c0.02-0.02,0.03-0.05,0.04-0.07c0.03-0.04,0.05-0.07,0.07-0.12C23.47,8.69,23.47,8.65,23.48,8.62z M7.33,2.7
		C7.1,2.45,6.73,2.44,6.48,2.67L0.69,8.06c-0.01,0-0.01,0.01-0.02,0.02L0.66,8.09C0.64,8.11,0.63,8.14,0.62,8.16
		C0.59,8.2,0.56,8.23,0.54,8.28c-0.01,0.03-0.02,0.07-0.02,0.1C0.51,8.42,0.5,8.46,0.5,8.5s0.01,0.08,0.02,0.12
		c0.01,0.03,0.01,0.07,0.02,0.1C0.56,8.76,0.59,8.8,0.62,8.84c0.02,0.02,0.02,0.05,0.04,0.07l0.01,0.01
		c0.01,0.01,0.01,0.02,0.02,0.02l5.79,5.39c0.12,0.11,0.26,0.16,0.41,0.16c0.16,0,0.32-0.06,0.44-0.19
		c0.23-0.24,0.21-0.62-0.03-0.85L1.98,8.5L7.3,3.54C7.54,3.32,7.56,2.94,7.33,2.7z"/>
<rect class="no-fill" id="Bounding-Box" width="24" height="17"/>
</svg>