<svg xmlns="http://www.w3.org/2000/svg" width="20px" height="16px" viewBox="0 0 20 16">
<defs><style>.fill{fill:#fff;}.no-fill{fill:none;}</style></defs>
<path class="fill" d="M16.07,15.9c-0.14,0-0.29-0.05-0.4-0.16c-0.23-0.22-0.24-0.58-0.02-0.81
		c1.79-1.88,2.78-4.34,2.78-6.93c0-2.62-1-5.09-2.82-6.97c-0.22-0.23-0.22-0.6,0-0.82c0.22-0.22,0.58-0.23,0.8,0
		c0.01,0.01,0.04,0.04,0.05,0.06c2,2.07,3.12,4.83,3.12,7.74c0,2.89-1.1,5.63-3.1,7.73C16.37,15.84,16.22,15.9,16.07,15.9z
		 M12.91,13.03c1.36-1.29,2.17-3.17,2.17-5.03c0-1.85-0.81-3.73-2.17-5.03c-0.23-0.22-0.59-0.21-0.81,0.02
		c-0.22,0.23-0.21,0.59,0.02,0.81c1.14,1.09,1.82,2.66,1.82,4.2c0,1.55-0.68,3.12-1.81,4.2c-0.23,0.22-0.24,0.58-0.02,0.81
		c0.11,0.12,0.26,0.18,0.42,0.18C12.65,13.19,12.79,13.14,12.91,13.03z M7.68,1.74L4,5.01H0.99C0.48,5.01,0,5.44,0,5.99v3.98
		c0,0.57,0.48,0.99,1,0.99h3l3.67,3.3c0.16,0.16,0.36,0.25,0.56,0.25c0.1,0,0.19-0.02,0.28-0.05C8.81,14.34,9,14.06,9,13.75V2.26
		c0.01-0.31-0.18-0.6-0.48-0.71C8.23,1.44,7.9,1.52,7.68,1.74z"/>
<rect class="no-fill" id="Bounding-Box" width="20" height="16"/>
</svg>