<svg xmlns="http://www.w3.org/2000/svg" width="20px" height="16px" viewBox="0 0 20 16">
<defs><style>.fill{fill:#fff;}.no-fill{fill:none;}</style></defs>
<path class="fill" d="M14.5,14.8c0.5,0.7,0.2,1.2-0.6,1.2H6.1c-0.8,0-1.1-0.5-0.6-1.2l3.7-5.4c0.4-0.7,1.2-0.7,1.6,0L14.5,14.8z
	 M17.4,0H2.6C1.2,0,0,1.2,0,2.6v6.7C0,10.8,1.2,12,2.6,12H4c0.3,0,0.5-0.2,0.5-0.5S4.3,11,4,11H2.6C1.7,11,1,10.3,1,9.4V2.6
	C1,1.7,1.7,1,2.6,1h14.8C18.3,1,19,1.7,19,2.6v6.7c0,0.9-0.7,1.6-1.6,1.6H16c-0.3,0-0.5,0.2-0.5,0.5S15.7,12,16,12h1.4
	c1.4,0,2.6-1.2,2.6-2.6V2.6C20,1.2,18.8,0,17.4,0z"/>
<rect class="no-fill" id="Bounding-Box" width="20" height="16"/>
</svg>
