<svg xmlns="http://www.w3.org/2000/svg" width="19px" height="17px" viewBox="0 0 19 17">
<defs><style>.fill{fill:#fff;}.no-fill{fill:none;}</style></defs>
<path class="fill" d="M16.94,2.88c-0.26,0.34-0.57,0.61-0.93,0.83C16.7,3.63,17.36,3.44,18,3.15
		c-0.47,0.72-1.05,1.33-1.74,1.84c0.06,1.36-0.16,2.72-0.63,3.99c-0.45,1.22-1.08,2.3-1.9,3.25c-0.86,0.99-1.91,1.8-3.1,2.36
		c-1.3,0.61-2.71,0.91-4.25,0.91c-0.97,0-1.91-0.14-2.82-0.41c-0.88-0.28-1.72-0.67-2.49-1.18c0.27,0.04,0.54,0.06,0.83,0.06
		c0.79,0,1.57-0.13,2.32-0.4c0.72-0.26,1.38-0.63,1.98-1.12c-1.5-0.03-2.81-1.02-3.23-2.46c0.21,0.05,0.43,0.07,0.64,0.07
		c0.32,0,0.62-0.04,0.92-0.13C4,9.82,3.53,9.61,3.1,9.27C2.23,8.6,1.73,7.56,1.74,6.46V6.43C2.23,6.7,2.76,6.85,3.32,6.86
		C2.84,6.54,2.47,6.12,2.2,5.61C1.92,5.09,1.77,4.53,1.77,3.92c0-0.63,0.15-1.22,0.46-1.78c0.86,1.08,1.94,1.96,3.16,2.6
		C6.64,5.4,7.98,5.77,9.4,5.84c-0.06-0.26-0.09-0.53-0.09-0.8c0-0.64,0.16-1.24,0.47-1.79c0.87-1.55,2.78-2.18,4.4-1.45
		C14.62,2,15,2.27,15.32,2.62c0.78-0.16,1.51-0.45,2.2-0.86C17.4,2.17,17.2,2.54,16.94,2.88L16.94,2.88z"/>
<rect class="no-fill" id="Bounding-Box" width="19" height="17"/>
</svg>