<svg xmlns="http://www.w3.org/2000/svg" width="20px" height="16px" viewBox="0 0 20 16">
<defs><style>.fill{fill:#fff;}.no-fill{fill:none;}</style></defs>
<path class="fill" d="M6.49,12H2.43C0.93,12,0,10.77,0,9.63V2.37C0,1.22,0.85,0,2.43,0h11.21C14.8,0,16,0.89,16,2.37v3.11
		c0,0.28-0.22,0.5-0.5,0.5S15,5.75,15,5.48V2.37C15,1.48,14.3,1,13.63,1H2.43C1.26,1,1,1.99,1,2.37v7.27C1,10.19,1.46,11,2.43,11
		h4.06c0.28,0,0.5,0.22,0.5,0.5S6.76,12,6.49,12z M10,11v3c0,1.1,0.9,2,2,2h6c1.1,0,2-0.9,2-2v-3c0-1.1-0.9-2-2-2h-6
		C10.9,9,10,9.9,10,11z"/>
<rect class="no-fill" id="Bounding-Box" width="20" height="16"/>
</svg>